# xmcd
#
# Track frame offsets:
#	150
#	12987
#	33816
#	46996
#	59711
#	75274
#	90468
#	105169
#	118571
#	131448
#	147479
#	158885
#	176762
#	188798
#	201353
#	216906
#	228406
#	242191
#
# Disc length: 3382 seconds
#
# Revision: 3
# Processed by: cddbd v1.5.2PL0 Copyright (c) Steve Scherf et al.
# Submitted via: audiograbber 1.83.01
#
DISCID=f10d3412
DTITLE=Tanya Tucker - The Essential Tanya Tucker
DYEAR=2001
DGENRE=Country
TTITLE0=San Antonio Stroll
TTITLE1=Texas (When I Die)
TTITLE2=Dream Lover (with Glen Campbell)
TTITLE3=Don't Believe My Heart Can Stand Another You
TTITLE4=I'm Not Lisa
TTITLE5=Rodeo Girls
TTITLE6=Travelling Salesman
TTITLE7=You've Got Me To Hold On To
TTITLE8=Here's Some Love
TTITLE9=Makin' Love Don't Always Make Love Grow
TTITLE10=It's A Cowboy Lovin' Night
TTITLE11=I'm The Singer, You're The Song
TTITLE12=Ridin' Rainbows
TTITLE13=Can I See You Tonight
TTITLE14=Dancing The Night Away
TTITLE15=The King Of Country Music
TTITLE16=Lizzie and The Rainman
TTITLE17=Pecos Promenade
EXTD=YEAR: 2001
EXTT0=
EXTT1=
EXTT2=Feat. Glen Campbell
EXTT3=
EXTT4=
EXTT5=
EXTT6=
EXTT7=
EXTT8=
EXTT9=
EXTT10=
EXTT11=
EXTT12=
EXTT13=
EXTT14=
EXTT15=
EXTT16=
EXTT17=
PLAYORDER=
